<?xml version="1.0" encoding="UTF-8"?>
<svg version="1.1" xmlns="http://www.w3.org/2000/svg" width="192" height="192">
<path d="M0 0 C2.5625 1.75 2.5625 1.75 4 3 C6.01507538 1.99471631 8.02795722 0.98577992 10.03515625 -0.03515625 C11.03869141 -0.54369141 11.03869141 -0.54369141 12.0625 -1.0625 C13.06990234 -1.57490234 13.06990234 -1.57490234 14.09765625 -2.09765625 C20.7114401 -5.23478986 29.01398919 -5.04704055 36.00390625 -3.2109375 C40.13476742 -1.5979932 43.51374868 0.2472812 47 3 C50.18416946 1.47159866 53.1958838 -0.27706638 56.21875 -2.09765625 C62.7171279 -5.38959769 71.93527086 -5.15481756 78.77734375 -3.2109375 C82.50334209 -1.58662541 85.91774169 0.31977538 89 3 C91.01507538 1.99471631 93.02795722 0.98577992 95.03515625 -0.03515625 C95.70417969 -0.37417969 96.37320313 -0.71320313 97.0625 -1.0625 C98.06990234 -1.57490234 98.06990234 -1.57490234 99.09765625 -2.09765625 C105.70505651 -5.23176192 113.92629924 -4.99808381 120.93359375 -3.28125 C130.43243663 0.30431017 135.39633045 6.1525569 140 15 C140.98466253 17.95398758 141.12127836 19.85249022 141.11352539 22.93041992 C141.11344986 23.93123093 141.11337433 24.93204193 141.11329651 25.96318054 C141.10813522 27.04138565 141.10297394 28.11959076 141.09765625 29.23046875 C141.09553383 30.88880486 141.09553383 30.88880486 141.09336853 32.5806427 C141.08776514 36.11628917 141.07521204 39.65187262 141.0625 43.1875 C141.05748544 45.58268138 141.05292246 47.97786375 141.04882812 50.37304688 C141.0377946 56.24872225 141.02052767 62.12435043 141 68 C135.39 68 129.78 68 124 68 C123.97812622 66.04779541 123.97812622 66.04779541 123.95581055 64.05615234 C123.89771066 59.21408008 123.82047809 54.37246715 123.73754883 49.53076172 C123.70435451 47.43773876 123.67630555 45.34462747 123.65356445 43.25146484 C123.61991769 40.23757388 123.56759607 37.22448837 123.51171875 34.2109375 C123.50213387 32.81371964 123.50213387 32.81371964 123.49235535 31.38827515 C123.35552675 25.30203054 122.49528784 20.87917828 118.375 16.125 C114.60823446 14.34074264 111.07801406 14.23096275 107 15 C103.42947791 16.93341549 101.30548034 19.08355899 100 23 C99.88624128 24.48770605 99.82392798 25.97967324 99.79467773 27.47143555 C99.77473251 28.37214279 99.75478729 29.27285004 99.73423767 30.20085144 C99.71752518 31.16968765 99.70081268 32.13852386 99.68359375 33.13671875 C99.6524221 34.62858452 99.6524221 34.62858452 99.62062073 36.15058899 C99.55520588 39.32948867 99.4962776 42.50847134 99.4375 45.6875 C99.39430712 47.84180548 99.35069258 49.99610254 99.30664062 52.15039062 C99.19953269 57.43350858 99.09824234 62.71671005 99 68 C93.06 68 87.12 68 81 68 C80.98541748 66.63270752 80.97083496 65.26541504 80.95581055 63.85668945 C80.89778537 58.77797452 80.82055215 53.69970097 80.73754883 48.62133789 C80.70431945 46.42447073 80.67628134 44.2275186 80.65356445 42.03051758 C80.61998246 38.87023757 80.56766366 35.71073479 80.51171875 32.55078125 C80.50532883 31.57039383 80.4989389 30.59000641 80.49235535 29.57991028 C80.38558443 24.61426134 80.30089493 20.99437731 77 17 C73.01675806 14.32006831 68.64036303 14.16456922 64 15 C61.24430553 17.18159145 59.56411253 18.87177494 58 22 C57.88213309 23.48012824 57.82307062 24.96516466 57.79467773 26.44970703 C57.77473251 27.37051056 57.75478729 28.29131409 57.73423767 29.24002075 C57.71752518 30.23589203 57.70081268 31.23176331 57.68359375 32.2578125 C57.6524221 33.78509476 57.6524221 33.78509476 57.62062073 35.3432312 C57.55510534 38.60375055 57.49623098 41.86435206 57.4375 45.125 C57.39431668 47.33203983 57.35070245 49.53907128 57.30664062 51.74609375 C57.1994219 57.16397775 57.09816004 62.58194461 57 68 C51.06 68 45.12 68 39 68 C38.98541748 66.69853027 38.97083496 65.39706055 38.95581055 64.05615234 C38.89771066 59.21408008 38.82047809 54.37246715 38.73754883 49.53076172 C38.70435451 47.43773876 38.67630555 45.34462747 38.65356445 43.25146484 C38.61991769 40.23757388 38.56759607 37.22448837 38.51171875 34.2109375 C38.50532883 33.27945892 38.4989389 32.34798035 38.49235535 31.38827515 C38.35552675 25.30203054 37.49528784 20.87917828 33.375 16.125 C29.60823446 14.34074264 26.07801406 14.23096275 22 15 C18.42947791 16.93341549 16.30548034 19.08355899 15 23 C14.88624128 24.48770605 14.82392798 25.97967324 14.79467773 27.47143555 C14.77473251 28.37214279 14.75478729 29.27285004 14.73423767 30.20085144 C14.70916893 31.65410576 14.70916893 31.65410576 14.68359375 33.13671875 C14.66281265 34.13129593 14.64203156 35.12587311 14.62062073 36.15058899 C14.55520588 39.32948867 14.4962776 42.50847134 14.4375 45.6875 C14.39430712 47.84180548 14.35069258 49.99610254 14.30664062 52.15039062 C14.19953269 57.43350858 14.09824234 62.71671005 14 68 C8.06 68 2.12 68 -4 68 C-4.01458252 66.63270752 -4.02916504 65.26541504 -4.04418945 63.85668945 C-4.10221463 58.77797452 -4.17944785 53.69970097 -4.26245117 48.62133789 C-4.29568055 46.42447073 -4.32371866 44.2275186 -4.34643555 42.03051758 C-4.38001754 38.87023757 -4.43233634 35.71073479 -4.48828125 32.55078125 C-4.49467117 31.57039383 -4.5010611 30.59000641 -4.50764465 29.57991028 C-4.61441557 24.61426134 -4.69910507 20.99437731 -8 17 C-11.98324194 14.32006831 -16.35963697 14.16456922 -21 15 C-23.75569447 17.18159145 -25.43588747 18.87177494 -27 22 C-27.11786691 23.48012824 -27.17692938 24.96516466 -27.20532227 26.44970703 C-27.22526749 27.37051056 -27.24521271 28.29131409 -27.26576233 29.24002075 C-27.29083107 30.73382767 -27.29083107 30.73382767 -27.31640625 32.2578125 C-27.33718735 33.27600067 -27.35796844 34.29418884 -27.37937927 35.3432312 C-27.44489466 38.60375055 -27.50376902 41.86435206 -27.5625 45.125 C-27.60568332 47.33203983 -27.64929755 49.53907128 -27.69335938 51.74609375 C-27.8005781 57.16397775 -27.90183996 62.58194461 -28 68 C-33.94 68 -39.88 68 -46 68 C-46.09940099 61.20479525 -46.17172033 54.41002038 -46.21972656 47.61425781 C-46.23975417 45.30591451 -46.26698439 42.99762138 -46.30175781 40.68945312 C-46.35066594 37.35794643 -46.37305811 34.02711462 -46.390625 30.6953125 C-46.41127014 29.67511017 -46.43191528 28.65490784 -46.45318604 27.60379028 C-46.4556777 19.51942051 -44.73821597 12.82497872 -39.9921875 6.1953125 C-28.97771268 -4.57529941 -13.87080522 -8.50539485 0 0 Z " fill="#3C8BFF" transform="translate(48,88)"/>
<path d="M0 0 C4.91957021 2.64080825 8.16838994 5.99735731 9.9296875 11.28125 C10.46390854 17.25014281 10.46275472 22.21718698 6.9296875 27.28125 C3.22179094 30.90674886 0.04281684 33.23775422 -5.0703125 34.28125 C-10.58764691 33.98567851 -15.47643253 32.83318043 -19.51953125 28.85546875 C-23.52072752 24.23517621 -24.42871185 20.61652493 -24.3515625 14.6953125 C-23.73058933 9.36529275 -21.34358324 5.49240997 -17.5078125 1.84375 C-12.36346917 -1.45390598 -5.79571342 -2.01209673 0 0 Z " fill="#4F72FF" transform="translate(39.0703125,41.71875)"/>
<path d="M0 0 C4.76032566 2.81211831 7.43464983 5.68434328 9.359375 10.93359375 C10.35730501 17.71951778 9.45321699 22.40505638 5.671875 28.05859375 C2.35467925 31.3757895 -0.74536022 33.0503855 -5.328125 34.05859375 C-10.83850879 33.76339462 -15.77994213 32.62738187 -19.77734375 28.59765625 C-24.32930461 23.25008046 -24.67523302 19.92513203 -24.609375 13.04296875 C-24.10966776 7.74051966 -21.5773545 5.1859472 -17.765625 1.74609375 C-12.60164163 -1.82897166 -5.82935283 -2.35717119 0 0 Z " fill="#3692FF" transform="translate(125.328125,41.94140625)"/>
<path d="M0 0 C4.12593192 2.87855716 7.06537651 6.00862953 8.6875 10.875 C9.19192239 16.1424928 9.3591659 20.50679168 7 25.3125 C3.02767577 29.71426469 -0.43023878 32.58090253 -6.3125 33.875 C-11.76480316 33.67673443 -16.0517682 32.23706628 -20.3125 28.875 C-24.52038028 23.44904911 -26.15791236 18.73631767 -25.3125 11.875 C-23.67575917 6.20374515 -20.75598092 2.56953424 -15.59375 -0.28125 C-10.28184176 -2.24592839 -5.28236982 -1.79401239 0 0 Z " fill="#4283FF" transform="translate(83.3125,42.125)"/>
<path d="M0 0 C4.8980738 3.22827591 7.7822066 5.78977597 9.25 11.5625 C10.0875412 16.91478708 9.26638298 21.03515638 6.75 25.8125 C3.33270075 30.30380758 -0.70010899 32.85768004 -6.25 33.8125 C-12.07597331 33.49651501 -16.7551176 31.55823533 -21.25 27.8125 C-24.67494896 23.67894091 -25.3903467 19.06672975 -25.25 13.8125 C-24.12769921 8.21101661 -21.72583157 4.43579223 -17.25 0.8125 C-11.93170218 -2.2898404 -5.64602796 -2.06297175 0 0 Z " fill="#2AA3FF" transform="translate(168.25,42.1875)"/>
</svg>
